<svg width="34" height="34" viewBox="0 0 34 34" fill="none" xmlns="http://www.w3.org/2000/svg">
<path fill-rule="evenodd" clip-rule="evenodd" d="M4.58904 17.3867C4.37266 16.9856 4.37266 16.4991 4.58904 16.0981C7.19659 11.2758 12.0134 7.0957 16.8302 7.0957C21.647 7.0957 26.4638 11.2758 29.0713 16.0995C29.2877 16.5005 29.2877 16.987 29.0713 17.3881C26.4638 22.2104 21.647 26.3905 16.8302 26.3905C12.0134 26.3905 7.19659 22.2104 4.58904 17.3867Z" stroke="#828282" stroke-width="2.06729" stroke-linecap="round" stroke-linejoin="round"/>
<path d="M19.7545 13.8194C21.3691 15.434 21.3691 18.0519 19.7545 19.6666C18.1398 21.2812 15.5219 21.2812 13.9073 19.6666C12.2926 18.0519 12.2926 15.434 13.9073 13.8194C15.5219 12.2047 18.1398 12.2047 19.7545 13.8194" stroke="#828282" stroke-width="1.96889" stroke-linecap="round" stroke-linejoin="round"/>
</svg>
