<svg width="34" height="34" viewBox="0 0 34 34" fill="none" xmlns="http://www.w3.org/2000/svg">
<path fill-rule="evenodd" clip-rule="evenodd" d="M4.58904 17.5654C4.37266 17.1644 4.37266 16.6778 4.58904 16.2768C7.19659 11.4545 12.0134 7.27441 16.8302 7.27441C21.647 7.27441 26.4638 11.4545 29.0713 16.2782C29.2877 16.6792 29.2877 17.1657 29.0713 17.5668C26.4638 22.3891 21.647 26.5692 16.8302 26.5692C12.0134 26.5692 7.19659 22.3891 4.58904 17.5654Z" stroke="#828282" stroke-width="2.06729" stroke-linecap="round" stroke-linejoin="round"/>
<path d="M19.7545 13.9981C21.3691 15.6128 21.3691 18.2306 19.7545 19.8453C18.1398 21.4599 15.5219 21.4599 13.9073 19.8453C12.2926 18.2306 12.2926 15.6128 13.9073 13.9981C15.5219 12.3834 18.1398 12.3834 19.7545 13.9981" stroke="#828282" stroke-width="1.96889" stroke-linecap="round" stroke-linejoin="round"/>
</svg>
