<svg width="16" height="17" viewBox="0 0 16 17" fill="none" xmlns="http://www.w3.org/2000/svg">
<g id="SVG">
<path id="Vector" d="M7.99967 11.1667C9.47243 11.1667 10.6663 9.97277 10.6663 8.50001C10.6663 7.02725 9.47243 5.83334 7.99967 5.83334C6.52692 5.83334 5.33301 7.02725 5.33301 8.50001C5.33301 9.97277 6.52692 11.1667 7.99967 11.1667Z" stroke="#FFA54C" stroke-width="1.33333" stroke-linecap="round" stroke-linejoin="round"/>
<path id="Vector_2" d="M10.6663 5.83333V9.16666C10.6663 9.69709 10.8771 10.2058 11.2521 10.5809C11.6272 10.9559 12.1359 11.1667 12.6663 11.1667C13.1968 11.1667 13.7055 10.9559 14.0806 10.5809C14.4556 10.2058 14.6663 9.69709 14.6663 9.16666V8.49999C14.6663 6.99535 14.1572 5.53498 13.2219 4.35635C12.2866 3.17772 10.98 2.35014 9.51477 2.00819C8.0495 1.66624 6.51164 1.83002 5.15125 2.4729C3.79086 3.11579 2.68795 4.19996 2.02185 5.54914C1.35576 6.89832 1.16566 8.43315 1.48246 9.90407C1.79926 11.375 2.60433 12.6955 3.76677 13.6508C4.9292 14.6062 6.38064 15.1402 7.88506 15.1661C9.38949 15.192 10.8584 14.7082 12.053 13.7933" stroke="#FFA54C" stroke-width="1.33333" stroke-linecap="round" stroke-linejoin="round"/>
</g>
</svg>
