<svg width="30" height="31" viewBox="0 0 30 31" fill="none" xmlns="http://www.w3.org/2000/svg">
<g id="gif">
<mask id="mask0_62_17591" style="mask-type:alpha" maskUnits="userSpaceOnUse" x="0" y="0" width="30" height="31">
<rect id="Bounding box" y="0.5" width="30" height="30" fill="#D9D9D9"/>
</mask>
<g mask="url(#mask0_62_17591)">
<path id="gif_2" d="M14.375 19.25V11.75H16.25V19.25H14.375ZM7.5 19.25C7.125 19.25 6.82292 19.1198 6.59375 18.8594C6.36458 18.599 6.25 18.3125 6.25 18V13C6.25 12.6875 6.36458 12.401 6.59375 12.1406C6.82292 11.8802 7.125 11.75 7.5 11.75H11.25C11.625 11.75 11.9271 11.8802 12.1562 12.1406C12.3854 12.401 12.5 12.6875 12.5 13V13.625H8.125V17.375H10.625V15.5H12.5V18C12.5 18.3125 12.3854 18.599 12.1562 18.8594C11.9271 19.1198 11.625 19.25 11.25 19.25H7.5ZM18.125 19.25V11.75H23.75V13.625H20V14.875H22.5V16.75H20V19.25H18.125Z" fill="#4B83FF"/>
</g>
</g>
</svg>
