<svg width="16" height="17" viewBox="0 0 16 17" fill="none" xmlns="http://www.w3.org/2000/svg">
<g id="SVG">
<path id="Vector" d="M12.6667 2.5H3.33333C2.59695 2.5 2 3.09695 2 3.83333V13.1667C2 13.903 2.59695 14.5 3.33333 14.5H12.6667C13.403 14.5 14 13.903 14 13.1667V3.83333C14 3.09695 13.403 2.5 12.6667 2.5Z" stroke="#4B83FF" stroke-width="1.33333" stroke-linecap="round" stroke-linejoin="round"/>
<path id="Vector_2" d="M5.66699 7.16669C6.21928 7.16669 6.66699 6.71897 6.66699 6.16669C6.66699 5.6144 6.21928 5.16669 5.66699 5.16669C5.11471 5.16669 4.66699 5.6144 4.66699 6.16669C4.66699 6.71897 5.11471 7.16669 5.66699 7.16669Z" stroke="#4B83FF" stroke-width="1.33333" stroke-linecap="round" stroke-linejoin="round"/>
<path id="Vector_3" d="M13.9997 10.5L10.6663 7.16669L3.33301 14.5" stroke="#4B83FF" stroke-width="1.33333" stroke-linecap="round" stroke-linejoin="round"/>
</g>
</svg>
